<svg xmlns="http://www.w3.org/2000/svg" viewBox="0 0 139.43 106.32"><defs><style>.cls-1{fill:#c777da;}</style></defs><g id="Layer_2" data-name="Layer 2"><g id="Layer_1-2" data-name="Layer 1"><path class="cls-1" d="M139.43,63.86V105H131l-.77-12.65A30.67,30.67,0,0,1,120,102.69q-6,3.63-16.06,3.63a35.35,35.35,0,0,1-18.92-5,33.87,33.87,0,0,1-12.65-14A40.63,40.63,0,0,1,68.81,77a45.4,45.4,0,0,1-.72-4.8c-.18-1.81-.27-3.67-.27-5.59a54.55,54.55,0,0,1,.27-5.49V23.87L46.64,66H35.53L14.08,23.87V77H0V0H16.72L41.25,48.84,65.45,0H82.17V33.92a34,34,0,0,1,3.2-2.18,37.8,37.8,0,0,1,19.85-5.06q13,0,21.62,6.27A28.48,28.48,0,0,1,138,50.22H127.33a17.74,17.74,0,0,0-7.31-11q-5.77-4.06-14.8-4.07A27.91,27.91,0,0,0,90.48,39a24.8,24.8,0,0,0-8.31,8.27c-.51.82-1,1.67-1.42,2.56a37.8,37.8,0,0,0-3.47,16.83A44.33,44.33,0,0,0,78.42,77a31.39,31.39,0,0,0,2.27,6.44,25.57,25.57,0,0,0,9.46,10.84,25.93,25.93,0,0,0,14.08,3.79q12.31,0,18.59-7.2T130,71.12H107.75V63.86Z"/></g></g></svg>