<?xml version="1.0" standalone="no"?>
<!DOCTYPE svg PUBLIC "-//W3C//DTD SVG 20010904//EN"
 "http://www.w3.org/TR/2001/REC-SVG-20010904/DTD/svg10.dtd">
<svg version="1.0" xmlns="http://www.w3.org/2000/svg"
 width="1112.000000pt" height="1112.000000pt" viewBox="0 0 1112.000000 1112.000000"
 preserveAspectRatio="xMidYMid meet">
<metadata>
Created by potrace 1.11, written by Peter Selinger 2001-2013
</metadata>
<g transform="translate(0.000000,1112.000000) scale(0.100000,-0.100000)"
fill="#000000" stroke="none">
<path d="M0 6730 l0 -3070 33 -1 c17 0 85 -1 150 -2 64 -1 117 2 117 6 0 5 5
5 11 2 15 -10 389 -11 389 -2 0 5 5 5 11 1 16 -9 149 -11 149 -1 0 5 5 5 11 1
6 -3 66 -6 132 -6 l121 0 0 686 c1 377 -3 686 -7 686 -5 0 -5 6 -1 12 11 17
11 148 1 148 -4 0 -5 6 0 13 12 18 10 377 -2 377 -7 0 -7 3 0 8 12 9 14 402 2
402 -5 0 -5 6 -1 12 11 17 11 148 1 148 -4 0 -5 6 0 13 12 18 10 377 -2 377
-7 0 -7 3 0 8 12 9 14 402 2 402 -5 0 -5 6 -1 12 11 18 11 148 0 148 -4 0 -4
6 1 13 5 7 9 167 8 385 -1 205 2 369 6 365 4 -5 43 -78 87 -163 196 -384 417
-819 493 -970 46 -91 87 -168 92 -171 5 -3 9 -9 8 -12 0 -10 26 -71 36 -80 4
-5 8 -12 8 -15 1 -7 48 -101 99 -196 14 -27 26 -55 26 -62 0 -7 3 -14 8 -16 4
-1 56 -100 116 -218 59 -118 112 -219 117 -225 5 -5 9 -17 9 -26 0 -10 3 -19
8 -21 6 -2 176 -331 220 -425 7 -15 17 -35 22 -43 27 -47 134 -266 131 -269
-1 -2 2 -7 7 -10 5 -3 45 -78 89 -166 45 -88 92 -180 104 -205 l24 -45 430 0
c237 0 438 1 447 3 16 4 31 29 25 43 -1 4 5 15 14 25 8 11 50 87 92 171 42 83
128 254 192 379 64 125 205 401 312 613 107 212 199 390 204 396 5 5 9 17 9
26 0 10 4 19 8 21 5 2 33 53 63 113 29 61 58 113 62 116 5 3 8 9 8 13 -1 10
33 80 47 94 6 7 12 22 12 32 0 10 3 20 8 22 4 2 42 73 84 158 43 85 104 206
137 268 32 61 56 112 53 112 -2 0 0 6 7 13 10 12 89 166 292 570 44 86 82 157
85 157 2 0 4 -693 4 -1540 -1 -847 -5 -1540 -9 -1540 -9 0 -12 -619 -3 -634 2
-4 6 -37 8 -73 2 -36 6 -77 9 -92 3 -14 7 -51 10 -82 3 -31 7 -65 10 -77 2
-11 7 -42 11 -69 5 -26 9 -50 9 -53 8 -29 36 -161 40 -190 1 -3 4 -16 8 -30 4
-14 13 -43 19 -65 36 -134 130 -398 150 -422 6 -7 8 -13 5 -13 -10 0 132 -279
194 -382 259 -429 644 -787 1079 -1001 107 -53 132 -64 254 -112 74 -29 201
-71 238 -80 13 -2 68 -16 123 -29 55 -13 116 -27 135 -30 19 -3 49 -8 65 -11
147 -25 224 -30 485 -30 222 0 309 4 470 21 32 3 75 9 125 18 11 2 38 7 60 11
22 3 56 10 75 15 19 5 47 11 61 14 20 3 184 55 257 81 7 2 14 5 17 5 14 1 230
115 233 122 2 4 10 8 18 8 8 0 14 5 14 10 0 6 6 10 14 10 8 0 21 6 28 12 7 7
31 25 53 40 91 62 237 186 335 287 126 128 112 112 263 312 35 45 57 79 57 86
0 4 9 19 20 33 17 23 19 23 18 5 0 -11 2 -60 6 -110 9 -130 15 -229 22 -346 3
-57 7 -129 9 -159 2 -30 6 -107 10 -170 4 -63 8 -128 10 -145 2 -16 3 -37 4
-45 1 -13 45 -15 333 -15 l333 0 3 1642 2 1641 -1262 -2 -1263 -1 -1 -287 -1
-288 26 -1 c14 0 414 0 887 0 l861 -1 -2 -36 c-6 -82 -21 -207 -35 -292 -5
-30 -12 -73 -16 -95 -10 -69 -62 -275 -94 -380 -80 -255 -256 -585 -382 -717
-10 -10 -18 -20 -18 -23 0 -22 -158 -173 -265 -253 -38 -29 -76 -57 -82 -63
-7 -5 -13 -7 -13 -4 0 4 -12 -3 -26 -14 -84 -66 -380 -182 -554 -217 -14 -3
-36 -7 -50 -10 -27 -6 -31 -6 -165 -24 -158 -20 -440 -30 -463 -16 -6 3 -13 2
-17 -4 -4 -6 -11 -8 -16 -4 -6 3 -47 8 -91 10 -45 3 -84 7 -88 9 -3 2 -29 7
-56 10 -27 4 -76 13 -109 21 -33 8 -71 17 -85 20 -44 9 -92 25 -225 75 -349
131 -681 394 -901 714 -58 84 -134 212 -134 224 0 6 -5 11 -10 11 -6 0 -9 3
-8 8 1 4 -13 39 -31 77 -18 39 -44 99 -58 135 -14 36 -28 74 -33 85 -4 11 -12
31 -19 45 -9 21 -28 87 -46 160 -2 8 -11 42 -19 75 -9 33 -18 76 -20 95 -3 19
-6 37 -7 40 -1 3 -3 10 -4 15 -1 6 -5 26 -9 45 -4 19 -8 46 -10 60 -2 14 -6
45 -10 70 -22 157 -30 289 -30 525 1 224 6 395 14 395 3 0 6 17 7 38 1 20 9
75 17 121 8 47 13 88 10 93 -3 4 -1 8 4 8 5 0 9 6 9 13 4 78 115 437 178 574
8 17 15 36 15 42 0 6 5 11 12 11 6 0 8 3 5 6 -9 10 126 255 145 262 4 2 8 9 8
15 0 21 146 203 240 298 78 79 146 138 275 238 71 54 342 199 405 215 3 1 32
12 65 25 33 13 65 24 70 25 6 2 37 11 70 21 71 22 55 18 177 44 166 35 285 46
493 44 139 0 199 -3 346 -17 129 -12 372 -70 484 -116 116 -47 224 -101 282
-141 24 -16 46 -29 49 -29 2 0 35 -23 72 -51 89 -68 251 -234 298 -306 21 -32
41 -60 45 -63 3 -3 21 -34 40 -70 19 -36 38 -68 42 -71 5 -3 9 -9 8 -12 0 -4
7 -24 16 -44 35 -83 62 -166 57 -175 -3 -4 0 -8 5 -8 6 0 10 -3 9 -7 -4 -14
13 -83 20 -84 4 -1 195 -2 424 -3 328 -2 418 1 422 11 3 7 1 15 -4 18 -5 3 -8
13 -8 23 2 30 -61 231 -109 347 -49 119 -177 363 -202 385 -3 3 -28 37 -55 77
-27 39 -59 82 -72 94 -13 12 -24 26 -24 30 0 4 -19 28 -42 52 -24 25 -55 58
-69 73 -46 50 -142 138 -209 192 -36 29 -70 57 -77 62 -23 19 -189 127 -235
153 -197 113 -437 207 -703 273 -46 11 -162 33 -212 40 -26 3 -57 8 -68 10
-125 24 -269 32 -550 33 -285 0 -449 -12 -486 -35 -8 -5 -9 -3 -4 6 5 8 4 11
-2 7 -5 -3 -20 -8 -34 -10 -188 -36 -363 -78 -397 -96 -12 -6 -22 -9 -22 -6 0
4 -59 -15 -130 -42 -8 -3 -19 -7 -25 -9 -47 -11 -441 -197 -455 -214 -3 -3
-44 -30 -92 -60 -49 -30 -88 -58 -88 -62 0 -5 -6 -8 -13 -8 -8 0 -22 -9 -32
-20 -10 -11 -21 -20 -25 -20 -3 0 -6 606 -6 1348 l0 1347 -667 3 -667 2 -255
-517 c-141 -285 -260 -525 -265 -533 -11 -18 -103 -203 -105 -210 0 -3 -67
-139 -149 -302 -81 -163 -147 -300 -146 -304 1 -4 -2 -10 -7 -13 -10 -7 -273
-538 -273 -551 0 -6 -4 -10 -10 -10 -5 0 -9 -3 -8 -7 1 -5 -88 -190 -199 -413
-110 -223 -201 -409 -201 -414 0 -5 -4 -12 -9 -15 -4 -3 -30 -53 -58 -111 -27
-58 -53 -106 -57 -108 -5 -2 -8 -8 -8 -12 0 -15 -83 -185 -92 -188 -4 -2 -8
-9 -8 -15 0 -11 -53 -121 -74 -155 -8 -13 -48 64 -884 1733 -204 407 -376 745
-382 752 -5 7 -10 16 -10 21 0 7 -115 238 -150 302 -8 14 -15 27 -15 30 -3 12
-69 145 -74 150 -6 5 -154 299 -156 310 -1 3 -34 70 -75 150 -40 80 -105 209
-144 287 l-71 143 -667 0 -668 0 0 -3070z"/>
</g>
</svg>
