<svg id="Page-1" xmlns="http://www.w3.org/2000/svg" width="40" height="40" viewBox="0 0 40 40">
  <g id="Intsagram">
    <path id="Oval-1" d="M20,0A20,20,0,1,0,40,20,20,20,0,0,0,20,0Zm0,2.4A17.6,17.6,0,1,0,37.6,20,17.6,17.6,0,0,0,20,2.4Zm8.761,25.208c.015-.082.026-.165.039-.247V12.639c-.012-.081-.023-.162-.038-.242a1.94,1.94,0,0,0-1.6-1.579c-.033,0-.066-.012-.1-.018H12.94c-.085.016-.171.028-.255.048a1.952,1.952,0,0,0-1.468,1.668c0,.034-.011.069-.017.1V27.382c.016.094.029.188.049.281a1.938,1.938,0,0,0,1.6,1.519c.037,0,.075.012.113.019H27.041c.091-.016.183-.03.274-.05A1.951,1.951,0,0,0,28.761,27.608ZM13.1,26.479a.729.729,0,0,0,.7.728h12.39a.728.728,0,0,0,.7-.731q0-4.08,0-8.159v-.056h-1.68a6,6,0,0,1,.217,2.421,5.8,5.8,0,0,1-.759,2.293,5.6,5.6,0,0,1-1.6,1.759,5.271,5.271,0,0,1-5.738.258,5.475,5.475,0,0,1-2.125-2.239,5.945,5.945,0,0,1-.426-4.494H13.1v.05Q13.1,22.395,13.1,26.479Zm6.814-2.753a3.734,3.734,0,1,0-3.484-3.783A3.649,3.649,0,0,0,19.918,23.726Zm6.976-8.941q0-.871,0-1.743a.727.727,0,0,0-.713-.748H24.518a.729.729,0,0,0-.714.75c0,.576,0,1.152,0,1.728a.872.872,0,0,0,.042.257.711.711,0,0,0,.7.5h.8c.289,0,.58,0,.87,0A.724.724,0,0,0,26.894,14.785Zm0,0" fill="#fff" fill-rule="evenodd"/>
  </g>
</svg>
