<svg id="Page-1" xmlns="http://www.w3.org/2000/svg" width="40" height="40" viewBox="0 0 40 40">
  <g id="LinkedIn">
    <path id="Oval-1" d="M20,40A20,20,0,1,0,0,20,20,20,0,0,0,20,40Zm0-2.4A17.6,17.6,0,1,0,2.4,20,17.6,17.6,0,0,0,20,37.6ZM11.2,16.094V27.727h3.768V16.094ZM13.332,10.4a2.012,2.012,0,1,0-.049,4.02h.024a2.013,2.013,0,1,0,.025-4.02Zm11.13,5.694a3.727,3.727,0,0,0-3.4,1.921V16.368H17.3c.05,1.091,0,11.632,0,11.632h3.769V21.5a2.712,2.712,0,0,1,.124-.943,2.069,2.069,0,0,1,1.933-1.414c1.364,0,1.909,1.067,1.909,2.63V28H28.8V21.33C28.8,17.757,26.941,16.094,24.462,16.094Zm0,0" fill="#fff" fill-rule="evenodd"/>
  </g>
</svg>
