<svg xmlns="http://www.w3.org/2000/svg" viewBox="0 0 84.31 50.73"><g id="Layer_2" data-name="Layer 2"><g id="Layer_1-2" data-name="Layer 1"><path d="M44.93,50.73V4h-.14L24.26,50.73H22.39L1.86,4H1.72V50.73H0V0H1.86L23.27,48.52h.14L44.72,0h1.93V50.73Z"/><path d="M64.13,50.73C51.19,50.73,42.26,40.26,42.26,25,42.26,10,51,0,64.13,0c10,0,18,5.88,19.83,14.61H82.23c-2-7.84-9.14-13-18.1-13C52,1.61,44,11,44,25c0,14.3,8.19,24.08,20.11,24.08,11.46,0,18.46-6.94,18.46-18.3V27.4H63.92V25.83H84.31v4.92C84.31,43.14,76.64,50.73,64.13,50.73Z"/></g></g></svg>